<?xml version="1.0" encoding="utf-8"?>
<!-- Generator: Adobe Illustrator 19.2.1, SVG Export Plug-In . SVG Version: 6.00 Build 0)  -->
<svg version="1.1" id="Layer_1" xmlns="http://www.w3.org/2000/svg" xmlns:xlink="http://www.w3.org/1999/xlink" x="0px" y="0px"
	 viewBox="0 0 155 33" style="enable-background:new 0 0 155 33;" xml:space="preserve">
<style type="text/css">
	.st0{fill:url(#SVGID_1_);}
	.st1{fill:#ffffff;}
</style>
<path class="st1" d="M61.8,8c0.1,0,0.3,0.1,0.4,0.1c0.1,0.1,0.2,0.1,0.3,0.2c0.1,0.1,0.2,0.2,0.3,0.4l9.5,12c0-0.4-0.1-0.8-0.1-1.1
	c0-0.4,0-0.7,0-1V8h4.1v20h-2.4c-0.4,0-0.7-0.1-0.9-0.2c-0.2-0.1-0.5-0.3-0.7-0.6l-9.4-11.9c0,0.3,0.1,0.7,0.1,1c0,0.3,0,0.6,0,0.9
	V28h-4.1V8h2.4C61.5,8,61.7,8,61.8,8z"/>
<path class="st1" d="M90.9,8v3.6h-8.2v5.1h6.8v3.6h-6.8V28H78V8H90.9z"/>
<path class="st1" d="M111.9,18c0,1.4-0.2,2.8-0.7,4c-0.5,1.2-1.2,2.3-2.1,3.2c-0.9,0.9-2,1.6-3.3,2.2c-1.3,0.5-2.7,0.8-4.2,0.8s-3-0.3-4.2-0.8
	c-1.3-0.5-2.4-1.2-3.3-2.2c-0.9-0.9-1.6-2-2.1-3.2c-0.5-1.2-0.7-2.6-0.7-4c0-1.4,0.2-2.8,0.7-4c0.5-1.2,1.2-2.3,2.1-3.2
	c0.9-0.9,2-1.6,3.3-2.2c1.3-0.5,2.7-0.8,4.2-0.8s3,0.3,4.2,0.8c1.3,0.5,2.4,1.2,3.3,2.2c0.9,0.9,1.6,2,2.1,3.2
	C111.6,15.2,111.9,16.6,111.9,18z M107.1,18c0-1-0.1-1.9-0.4-2.7c-0.3-0.8-0.6-1.5-1.1-2c-0.5-0.5-1.1-1-1.8-1.3
	c-0.7-0.3-1.5-0.4-2.4-0.4c-0.9,0-1.7,0.1-2.4,0.4c-0.7,0.3-1.3,0.7-1.8,1.3c-0.5,0.5-0.8,1.2-1.1,2C96,16.1,95.9,17,95.9,18
	c0,1,0.1,1.9,0.4,2.7c0.3,0.8,0.6,1.5,1.1,2c0.5,0.5,1.1,1,1.8,1.3c0.7,0.3,1.5,0.4,2.4,0.4c0.9,0,1.7-0.1,2.4-0.4
	c0.7-0.3,1.3-0.7,1.8-1.3c0.5-0.5,0.8-1.2,1.1-2C107,19.9,107.1,19,107.1,18z"/>
<path class="st1" d="M118.7,24.3h7.4V28h-12V8h4.6V24.3z"/>
<path class="st1" d="M132.3,28h-4.7V8h4.7V28z"/>
<path class="st1" d="M154.6,18c0,1.4-0.2,2.8-0.7,4c-0.5,1.2-1.2,2.3-2.1,3.2c-0.9,0.9-2,1.6-3.3,2.2c-1.3,0.5-2.7,0.8-4.2,0.8s-3-0.3-4.2-0.8
	c-1.3-0.5-2.4-1.2-3.3-2.2c-0.9-0.9-1.6-2-2.1-3.2c-0.5-1.2-0.7-2.6-0.7-4c0-1.4,0.2-2.8,0.7-4c0.5-1.2,1.2-2.3,2.1-3.2
	c0.9-0.9,2-1.6,3.3-2.2c1.3-0.5,2.7-0.8,4.2-0.8s3,0.3,4.2,0.8c1.3,0.5,2.4,1.2,3.3,2.2c0.9,0.9,1.6,2,2.1,3.2
	C154.3,15.2,154.6,16.6,154.6,18z M149.9,18c0-1-0.1-1.9-0.4-2.7c-0.3-0.8-0.6-1.5-1.1-2c-0.5-0.5-1.1-1-1.8-1.3
	c-0.7-0.3-1.5-0.4-2.4-0.4c-0.9,0-1.7,0.1-2.4,0.4c-0.7,0.3-1.3,0.7-1.8,1.3c-0.5,0.5-0.8,1.2-1.1,2c-0.3,0.8-0.4,1.7-0.4,2.7
	c0,1,0.1,1.9,0.4,2.7c0.3,0.8,0.6,1.5,1.1,2c0.5,0.5,1.1,1,1.8,1.3c0.7,0.3,1.5,0.4,2.4,0.4c0.9,0,1.7-0.1,2.4-0.4
	c0.7-0.3,1.3-0.7,1.8-1.3c0.5-0.5,0.8-1.2,1.1-2C149.7,19.9,149.9,19,149.9,18z"/>
<linearGradient id="SVGID_1_" gradientUnits="userSpaceOnUse" x1="0.4041" y1="16.5" x2="33.761" y2="16.5">
	<stop  offset="0.2784" style="stop-color:#23c6ec"/>
	<stop  offset="1" style="stop-color:#13BBE2"/>
</linearGradient>
<path class="st0" d="M32.6,6.9l-4.4,1.2l-7.1,12.2c-2.1,3.6-6.7,4.9-10.4,2.8c-1.8-1.1-3-2.7-3.5-4.6c-0.5-1.9-0.3-3.9,0.8-5.8
	c2.1-3.6,6.7-4.9,10.4-2.8l4.7,2.7l-1.2-4.4L26.3,7l-4.7-2.7C14.8,0.4,6.2,2.7,2.3,9.4C0.4,12.8,0,16.7,0.9,20.1
	c0.9,3.5,3.2,6.6,6.6,8.6c6.7,3.9,15.4,1.6,19.3-5.1l7.1-12.2L32.6,6.9z"/>
<path class="st1" d="M9.9,13.8c1.5-2.6,4.8-3.4,7.3-2c2.6,1.5,3.4,4.8,2,7.3s-4.8,3.4-7.3,2C9.3,19.7,8.4,16.4,9.9,13.8L9.9,13.8z"
	/>
<path class="st1" d="M53.5,8c-0.4,0-0.7,0.1-1,0.3C52.3,8.5,52.1,8.7,52,9l-2.7,10.4c-0.1,0.3-0.2,0.7-0.2,1c-0.1,0.4-0.2,0.7-0.2,1.2
	c-0.1-0.4-0.2-0.8-0.3-1.2c-0.1-0.4-0.2-0.7-0.3-1L45,9c-0.1-0.3-0.3-0.6-0.5-0.7c-0.3-0.2-0.6-0.3-1-0.3h-1.4c-0.4,0-0.7,0.1-1,0.3
	S40.7,8.8,40.6,9l-3.2,10.4c-0.1,0.3-0.2,0.7-0.3,1.1c-0.1,0.4-0.2,0.8-0.3,1.2c0-0.4-0.1-0.8-0.2-1.2c-0.1-0.4-0.2-0.7-0.3-1.1
	l-1.6-6.1l-3.2,5.5l2.8,9.1h4.2l3.8-12.4c0.1-0.2,0.1-0.4,0.2-0.6c0.1-0.2,0.1-0.5,0.2-0.7c0.1,0.3,0.1,0.5,0.2,0.7
	c0.1,0.2,0.1,0.4,0.2,0.6L46.8,28H51l6.2-20H53.5z"/>
</svg>
